<?xml version="1.0" encoding="utf-8"?>

<!-- The icon can be used freely in both personal and commercial projects with no attribution required, but always appreciated. 
You may NOT sub-license, resell, rent, redistribute or otherwise transfer the icon without express written permission from iconmonstr.com -->

<!DOCTYPE svg PUBLIC "-//W3C//DTD SVG 1.1//EN" "http://www.w3.org/Graphics/SVG/1.1/DTD/svg11.dtd">
<svg version="1.1" xmlns="http://www.w3.org/2000/svg" xmlns:xlink="http://www.w3.org/1999/xlink" x="0px" y="0px"
	 width="512px" height="512px" viewBox="0 0 512 512" enable-background="new 0 0 512 512" xml:space="preserve">
<path id="debug-2-icon" d="M189.805,149.486c0-4.9,3.972-8.872,8.871-8.872c5.848,0,10.091,5.565,8.564,11.194
	c-0.574,2.119-0.266,4.38,0.855,6.268c2.487,4.185,6.724,6.762,12.261,6.79c5.461-0.028,9.753-2.571,12.261-6.79
	c1.121-1.888,1.43-4.148,0.855-6.268c-1.524-5.621,2.709-11.194,8.564-11.194c4.899,0,8.871,3.972,8.871,8.872
	c0,4.253-2.985,7.777-6.93,8.659c-1.997,0.446-3.721,1.696-4.767,3.454c-4.029,6.783,1.82,12.744,6.576,18.799
	c-14.533,7.603-36.33,7.603-50.863,0c4.83-6.147,10.636-11.965,6.576-18.799c-1.046-1.758-2.77-3.008-4.767-3.454
	C192.79,157.264,189.805,153.739,189.805,149.486z M273.446,237.986h14.809c3.61,0,6.537-2.927,6.537-6.537
	c0-3.609-2.927-6.536-6.537-6.536h-14.901c-3.568,0-7.053-2.475-7.612-6.63c-0.569-4.267,1.775-7.227,4.743-8.396l13.842-5.459
	c3.359-1.324,5.008-5.121,3.684-8.479s-5.121-5.007-8.479-3.683l-14.232,5.613c-2.036,0.803-4.555,0.229-5.743-2.531
	c-1.39-3.227-2.966-6.24-4.71-8.977c-12.709,5.723-23.598,8.586-34.487,8.586c-10.888,0-21.777-2.861-34.489-8.586
	c-1.703,2.672-3.246,5.609-4.611,8.75c-1.409,3.24-4.012,3.479-5.841,2.758l-14.233-5.613c-3.358-1.324-7.155,0.324-8.479,3.683
	s0.324,7.155,3.684,8.479l13.842,5.459c3.077,1.213,5.3,4.374,4.794,8.027c-0.66,4.775-4.235,6.999-7.663,6.999h-14.901
	c-3.61,0-6.537,2.927-6.537,6.536c0,3.61,2.927,6.537,6.537,6.537h14.809c3.551,0,7.188,2.344,7.843,6.656
	c0.7,4.587-1.412,7.742-4.657,9.211l-15.012,6.791c-3.29,1.488-4.75,5.361-3.262,8.65c1.488,3.293,5.365,4.748,8.65,3.262
	l15.881-7.185c1.905-0.862,4.27-0.671,5.588,1.632c6.479,11.318,19.506,22.745,38.059,24.845
	c18.189-2.06,31.067-13.083,37.671-24.181c1.618-2.721,3.894-3.238,5.976-2.296l15.881,7.185c3.281,1.484,7.16,0.034,8.65-3.262
	c1.488-3.289,0.028-7.162-3.262-8.65l-15.012-6.791c-3.072-1.391-5.379-4.647-4.735-8.713
	C266.329,240.076,269.984,237.986,273.446,237.986z M361.742,307.929c16.496-26.001,26.064-56.81,26.064-89.814
	C387.807,125.416,312.392,50,219.692,50c-92.695,0-168.114,75.416-168.114,168.114c0,92.696,75.419,168.115,168.114,168.115
	c31.365,0,60.747-8.647,85.907-23.662L405.027,462l55.395-55.396L361.742,307.929z M219.691,343.463
	c-69.114,0-125.343-56.231-125.343-125.349c0-69.12,56.229-125.347,125.343-125.347c69.115,0,125.352,56.227,125.352,125.347
	C345.043,287.231,288.807,343.463,219.691,343.463z"/>
</svg>
